<?xml version="1.0" encoding="utf-8"?>
<!-- Generator: Adobe Illustrator 20.1.0, SVG Export Plug-In . SVG Version: 6.00 Build 0)  -->
<svg version="1.1" id="Layer_1" xmlns="http://www.w3.org/2000/svg" xmlns:xlink="http://www.w3.org/1999/xlink" x="0px" y="0px"
	 viewBox="0 0 1600 1703.5" style="enable-background:new 0 0 1600 1703.5;" xml:space="preserve">
<style type="text/css">
	.st0{fill:none;stroke:#007BFF;stroke-width:4;stroke-linecap:round;stroke-miterlimit:10;}
	.st1{fill:none;stroke:#082E51;stroke-width:4;stroke-linecap:round;stroke-linejoin:round;stroke-miterlimit:10;}
	.st2{fill:#082E51;}
</style>
<g>
	<path class="st0" d="M1009.8,324.1l6.4,15.1c1.4,3.2-0.1,6.6-3.3,8l-15.1,6.4"/>
	<line class="st0" x1="1010.4" y1="341.6" x2="554.9" y2="156.9"/>
</g>
<g>
	<path class="st0" d="M1025.7,545.5l1.9,16.3c0.4,3.4-2,6.4-5.4,6.8l-16.3,1.9"/>
	<line class="st0" x1="1021.4" y1="562.4" x2="540.7" y2="181.9"/>
</g>
<g>
	<path class="st0" d="M996.3,361.9l11.2,11.9c2.4,2.5,2.2,6.3-0.3,8.6l-11.9,11.2"/>
	<line class="st0" x1="1003" y1="378" x2="560.7" y2="364.7"/>
</g>
<g>
	<path class="st0" d="M998.7,401.8l14.7,7.2c3.1,1.5,4.3,5.1,2.8,8.2l-7.2,14.7"/>
	<line class="st0" x1="1010.5" y1="414.6" x2="555.6" y2="570.4"/>
</g>
<g>
	<path class="st0" d="M996,601.8l11.3,11.8c2.4,2.5,2.3,6.3-0.2,8.6l-11.8,11.3"/>
	<line class="st0" x1="1002.7" y1="617.9" x2="560.7" y2="607.7"/>
</g>
<g>
	<path class="st0" d="M1018.8,957.5l3.2,16.1c0.7,3.4-1.5,6.5-4.8,7.2l-16.1,3.2"/>
	<line class="st0" x1="1015.8" y1="974.6" x2="547.1" y2="659.7"/>
</g>
<g>
	<path class="st0" d="M1040.5,1171.3l-0.2,16.4c0,3.4-2.8,6-6.2,6l-16.4-0.2"/>
	<line class="st0" x1="1034" y1="1187.5" x2="534.7" y2="674.4"/>
</g>
<g>
	<path class="st0" d="M1023,451.2l16.3-0.6c3.4-0.2,6.2,2.4,6.3,5.9l0.6,16.3"/>
	<line class="st0" x1="1039.6" y1="456.8" x2="526.2" y2="1012.2"/>
</g>
<path class="st0" d="M1004.2,431.7l16.1-3.1c3.4-0.7,6.5,1.5,7.2,4.8l3.1,16.1"/>
<line class="st0" x1="1022.1" y1="434.8" x2="510.1" y2="1245.8"/>
<g>
	<path class="st0" d="M990,627.5l16-3.6c3.4-0.8,6.5,1.2,7.3,4.6l3.6,16"/>
	<line class="st0" x1="1007.2" y1="630.1" x2="502.7" y2="1480.7"/>
</g>
<g>
	<path class="st0" d="M1020.4,713.3l16.1-3.2c3.4-0.7,6.5,1.4,7.2,4.8l3.2,16.1"/>
	<line class="st0" x1="1037.6" y1="716.3" x2="519.9" y2="1489.5"/>
</g>
<g>
	<path class="st0" d="M1023.4,688.5l16.3-0.7c3.4-0.2,6.2,2.4,6.4,5.8l0.7,16.3"/>
	<line class="st0" x1="1039.9" y1="694" x2="530" y2="1251.1"/>
</g>
<g>
	<path class="st0" d="M1007.8,672.3l16.1,2.7c3.4,0.5,5.6,3.6,5,7l-2.7,16.1"/>
	<line class="st0" x1="1022.9" y1="681.1" x2="540.7" y2="1027.2"/>
</g>
<g>
	<path class="st0" d="M995.7,1018.1l12.6,10.4c2.7,2.2,3,5.9,0.8,8.6l-10.4,12.6"/>
	<line class="st0" x1="1004.3" y1="1033.3" x2="560.7" y2="1075.4"/>
</g>
<g>
	<path class="st0" d="M1000.4,1056.2l15.3,5.8c3.2,1.2,4.7,4.7,3.5,7.9l-5.8,15.3"/>
	<line class="st0" x1="1013.4" y1="1067.8" x2="547.8" y2="1278"/>
</g>
<g>
	<path class="st0" d="M1007.1,1081.3l16.3,1.3c3.4,0.2,5.9,3.1,5.6,6.6l-1.3,16.3"/>
	<line class="st0" x1="1022.9" y1="1088.8" x2="534.7" y2="1506.7"/>
</g>
<g>
	<path class="st0" d="M994.5,1297.4l15.3,5.7c3.2,1.2,4.8,4.6,3.6,7.9l-5.7,15.3"/>
	<line class="st0" x1="1007.6" y1="1308.9" x2="550.7" y2="1519.4"/>
</g>
<g>
	<path class="st0" d="M998.1,1255.5l12.7,10.3c2.7,2.2,3,5.9,0.9,8.6l-10.3,12.7"/>
	<line class="st0" x1="1006.8" y1="1270.7" x2="560.7" y2="1315.7"/>
</g>
<g>
	<path class="st0" d="M1004.9,1215.2l8.1,14.2c1.7,3,0.7,6.6-2.3,8.3l-14.2,8.1"/>
	<line class="st0" x1="1007.6" y1="1232.4" x2="560.7" y2="1109.4"/>
</g>
<g>
	<path class="st0" d="M1008.4,563.7l6.5,15c1.4,3.1,0,6.6-3.2,8l-15,6.5"/>
	<line class="st0" x1="1009.2" y1="581.2" x2="554.9" y2="401.3"/>
</g>
<g>
	<path class="st0" d="M1039.2,937l-0.4,16.4c-0.1,3.4-2.8,6-6.3,5.9l-16.4-0.4"/>
	<line class="st0" x1="1032.5" y1="953.1" x2="534.7" y2="434.8"/>
</g>
<g>
	<path class="st0" d="M1059.4,1158.5l-2.6,16.1c-0.5,3.4-3.6,5.6-7,5l-16.1-2.6"/>
	<line class="st0" x1="1050.6" y1="1173.6" x2="519.9" y2="444.8"/>
</g>
<g>
	<path class="st0" d="M1059.4,922.5l-2.6,16.1c-0.5,3.4-3.6,5.6-7,5l-16.1-2.6"/>
	<line class="st0" x1="1050.6" y1="937.6" x2="515.8" y2="203.3"/>
</g>
<path class="st0" d="M1023.7,1193.7l-3.1,16c-0.6,3.4-3.7,5.5-7.2,4.9l-16-3.1"/>
<line class="st0" x1="1013.8" y1="1207.7" x2="498" y2="213.3"/>
<circle class="st1" cx="459.8" cy="365.8" r="84.7"/>
<circle class="st1" cx="459.8" cy="604.4" r="84.7"/>
<circle class="st1" cx="459.8" cy="1086.1" r="84.7"/>
<circle class="st1" cx="1104.4" cy="1022.3" r="84.7"/>
<circle class="st1" cx="1104.4" cy="619.7" r="84.7"/>
<polyline class="st1" points="1239.9,301.1 1320.9,301.1 1320.9,1346.3 1239.9,1346.3 "/>
<line class="st1" x1="1320.9" y1="829.2" x2="1389.9" y2="829.2"/>
<polyline class="st1" points="388.8,46.6 284.6,46.6 284.6,1650.3 388.8,1650.3 "/>
<line class="st1" x1="284.6" y1="856.9" x2="195.8" y2="856.9"/>
<g>
	<circle class="st1" cx="459.8" cy="123.9" r="84.7"/>
	<g>
		<g>
			<path class="st2" d="M471,117.3h8.9V88.9h-1.1l-7.9,5.3v-4.9l7.8-5.3h5.8v33.3h8.2v4.2H471V117.3z"/>
		</g>
		<g>
			<path class="st2" d="M471,159.6h8.9v-28.4h-1.1l-7.9,5.3v-4.9l7.8-5.3h5.8v33.3h8.2v4.2H471V159.6z"/>
		</g>
		<g>
			<path class="st2" d="M453,138.4h-1.6c-2.3,2.8-6.2,4.8-11.4,4.8c-8.4,0-13.1-5.7-13.1-11.9c0-5.9,3.8-12.1,14-12.1h11.9v-1.5
				c0-4.4-2.5-7.6-8.9-7.6c-5.4,0-8.2,2.1-8.5,5.3h-6.2c0.5-6.8,6.3-10.7,14.5-10.7c9.2,0,15.1,4.4,15.1,12.6v24.9H453V138.4z
				 M452.8,127.5v-3.3h-11c-6,0-8.8,2.6-8.8,7c0,4.1,3.1,6.8,8.5,6.8C447.6,137.8,452.8,133.3,452.8,127.5z"/>
		</g>
	</g>
</g>
<g>
	<path class="st2" d="M1443,850.3h14.1v-45.1h-1.7l-12.5,8.4v-7.8l12.4-8.4h9.3v52.9h13v6.6H1443V850.3z"/>
	<path class="st2" d="M1529.4,827.2c0,21.4-9.4,30.9-21.9,30.9c-12.6,0-21.9-9.4-21.9-30.9c0-21.4,9.3-31,21.9-31
		C1520,796.2,1529.4,805.7,1529.4,827.2z M1521.9,827.2c0-14.8-4.5-24.3-14.5-24.3c-9.9,0-14.4,9.5-14.4,24.3
		c0,14.7,4.5,24.2,14.4,24.2C1517.4,851.4,1521.9,841.9,1521.9,827.2z"/>
</g>
<g>
	<path class="st2" d="M77.7,878.3h14.1v-45.1h-1.7l-12.5,8.4v-7.8l12.4-8.4h9.3v52.9h13v6.6H77.7V878.3z"/>
	<path class="st2" d="M162.3,865.5c0,11.3-7.6,20.5-20.2,20.5c-12.7,0-21.9-7.8-21.9-29.3c0-18.1,7.1-32.6,22.6-32.6
		c10.1,0,16.5,6,17.9,14.2h-7.4c-1.4-5-4.7-7.6-10.5-7.6c-9.5,0-15,8.1-15.4,21.1h1.9c2-2.5,6.8-5.8,13.9-5.8
		C154.2,846.1,162.3,854.2,162.3,865.5z M154.9,865.9c0-8.8-5.8-13.2-13-13.2c-7.1,0-12.9,4.6-12.9,13.1c0,8.7,5.9,13.6,13.1,13.6
		S154.9,874.7,154.9,865.9z"/>
</g>
<g>
	<circle class="st1" cx="459.8" cy="1325.9" r="84.7"/>
	<g>
		<g>
			<path class="st2" d="M456.4,1313.6h8.9v-28.4h-1.1l-7.9,5.3v-4.9l7.8-5.3h5.8v33.3h8.2v4.2h-21.8v-4.2H456.4z"/>
		</g>
		<g>
			<path class="st2" d="M456.4,1355.8h8.9v-28.4h-1.1l-7.9,5.3v-4.9l7.8-5.3h5.8v33.3h8.2v4.2h-21.8v-4.2H456.4z"/>
			<path class="st2" d="M509.3,1347.3c0,8.1-5.3,13.4-12.9,13.4c-8.3,0-12.7-4.9-13.1-11.2h4.7c0.6,4.7,3.6,7,8.2,7
				c5,0,8.4-3.4,8.4-9c0-5.1-3.2-8.8-8.2-8.8c-3.4,0-5.8,1.2-7.5,3.5h-4.7l1.7-19.8h21.4v4.1h-17.6l-0.9,10.8h1.2
				c1.7-1.6,3.8-2.6,7.2-2.6C504.8,1334.8,509.3,1340.3,509.3,1347.3z"/>
		</g>
		<g>
			<path class="st2" d="M436.5,1337.6h-1.6c-2.3,2.8-6.2,4.8-11.4,4.8c-8.4,0-13.1-5.7-13.1-11.9c0-5.9,3.8-12.1,14-12.1h11.9v-1.5
				c0-4.4-2.5-7.6-8.9-7.6c-5.4,0-8.2,2.1-8.5,5.3h-6.2c0.5-6.8,6.3-10.7,14.5-10.7c9.2,0,15.1,4.4,15.1,12.6v24.9h-5.8V1337.6z
				 M436.2,1326.7v-3.3h-11c-6,0-8.8,2.6-8.8,7c0,4.1,3.1,6.8,8.5,6.8C431.1,1337.1,436.2,1332.5,436.2,1326.7z"/>
		</g>
	</g>
</g>
<g>
	<circle class="st1" cx="1104.4" cy="1260.5" r="84.7"/>
	<g>
		<g>
			<path class="st2" d="M1098.9,1230.9c0.4-7.5,5.8-11.1,12.5-11.1c7,0,12.2,3.9,12.2,11.4c0,5.1-3.9,9.9-8.3,13.6l-9.4,7.9v1.2
				h18.9v4.2H1099v-5.3l5.5-4.5c3-2.4,6.5-5.4,8.5-7.2c2.6-2.3,5.8-5.4,5.8-9.8c0-4.7-3-7.2-7.6-7.2c-4.2,0-7.2,2.2-7.7,6.9
				L1098.9,1230.9L1098.9,1230.9z"/>
		</g>
		<g>
			<path class="st2" d="M1099.2,1296.2h8.9v-28.4h-1.1l-7.9,5.3v-4.9l7.8-5.3h5.8v33.3h8.2v4.2h-21.8L1099.2,1296.2L1099.2,1296.2z"
				/>
			<path class="st2" d="M1153.6,1281.6c0,13.5-5.9,19.5-13.8,19.5s-13.8-6-13.8-19.5s5.8-19.5,13.8-19.5
				S1153.6,1268.1,1153.6,1281.6z M1148.9,1281.6c0-9.3-2.8-15.3-9.1-15.3c-6.2,0-9.1,6-9.1,15.3s2.8,15.3,9.1,15.3
				S1148.9,1290.9,1148.9,1281.6z"/>
		</g>
		<g>
			<path class="st2" d="M1081.3,1279h-1.6c-2.3,2.8-6.2,4.8-11.4,4.8c-8.4,0-13.1-5.7-13.1-11.9c0-5.9,3.8-12.1,14-12.1h11.9v-1.5
				c0-4.4-2.5-7.6-8.9-7.6c-5.4,0-8.2,2.1-8.5,5.3h-6.2c0.5-6.8,6.3-10.7,14.5-10.7c9.2,0,15.1,4.4,15.1,12.6v24.9h-5.8V1279z
				 M1081.1,1268.1v-3.3h-11c-6,0-8.8,2.6-8.8,7c0,4.1,3.1,6.8,8.5,6.8C1075.9,1278.5,1081.1,1273.9,1081.1,1268.1z"/>
		</g>
	</g>
</g>
<g>
	<circle class="st1" cx="1104.4" cy="377.7" r="84.7"/>
	<g>
		<g>
			<path class="st2" d="M1111.4,347.5c0.4-7.5,5.8-11.1,12.5-11.1c7,0,12.2,3.9,12.2,11.4c0,5.1-3.9,9.9-8.3,13.6l-9.4,7.9v1.2h18.9
				v4.2h-25.8v-5.3l5.5-4.5c3-2.4,6.5-5.4,8.5-7.2c2.6-2.3,5.8-5.4,5.8-9.8c0-4.7-3-7.2-7.6-7.2c-4.2,0-7.2,2.2-7.7,6.9h-4.6V347.5z
				"/>
		</g>
		<g>
			<path class="st2" d="M1111.7,412.8h8.9v-28.4h-1.1l-7.9,5.3v-4.9l7.8-5.3h5.8v33.3h8.2v4.2h-21.8L1111.7,412.8L1111.7,412.8z"/>
		</g>
		<g>
			<path class="st2" d="M1091.7,394h-1.6c-2.3,2.8-6.2,4.8-11.4,4.8c-8.4,0-13.1-5.7-13.1-11.9c0-5.9,3.8-12.1,14-12.1h11.9v-1.5
				c0-4.4-2.5-7.6-8.9-7.6c-5.4,0-8.2,2.1-8.5,5.3h-6.2c0.5-6.8,6.3-10.7,14.5-10.7c9.2,0,15.1,4.4,15.1,12.6v24.9h-5.8V394z
				 M1091.5,383v-3.3h-11c-6,0-8.8,2.6-8.8,7c0,4.1,3.1,6.8,8.5,6.8C1086.3,393.4,1091.5,388.8,1091.5,383z"/>
		</g>
	</g>
</g>
<g>
	<circle class="st1" cx="459.8" cy="1565.4" r="84.7"/>
	<g>
		<g>
			<path class="st2" d="M473.2,1561.5h8.9v-28.4H481l-7.9,5.3v-4.9l7.8-5.3h5.8v33.3h8.2v4.2h-21.8v-4.2H473.2z"/>
		</g>
		<g>
			<path class="st2" d="M466.9,1583.5c0,10.8-6,19.2-16.1,19.2c-5.8,0-9.4-2.3-11.4-4.9h-1.6v3.9h-6V1549h6.2v20.1h1.6
				c2-2.6,5.4-4.9,11.2-4.9C461,1564.3,466.9,1572.5,466.9,1583.5z M460.8,1583.5c0-8.1-3.9-13.9-11.3-13.9
				c-8.1,0-11.5,6.7-11.5,13.9c0,7.2,3.3,13.9,11.5,13.9C456.8,1597.4,460.8,1591.6,460.8,1583.5z"/>
		</g>
	</g>
</g>
<g>
	<circle class="st2" cx="461.7" cy="850.8" r="5.5"/>
	<circle class="st2" cx="461.7" cy="877.7" r="5.5"/>
	<circle class="st2" cx="461.7" cy="904.6" r="5.5"/>
</g>
<g>
	<circle class="st2" cx="1105.5" cy="784.8" r="5.5"/>
	<circle class="st2" cx="1105.5" cy="811.7" r="5.5"/>
	<circle class="st2" cx="1105.5" cy="838.6" r="5.5"/>
</g>
</svg>
