<?xml version="1.0" encoding="utf-8"?>
<!-- Generator: Adobe Illustrator 20.1.0, SVG Export Plug-In . SVG Version: 6.00 Build 0)  -->
<svg version="1.1" id="Layer_1" xmlns="http://www.w3.org/2000/svg" xmlns:xlink="http://www.w3.org/1999/xlink" x="0px" y="0px"
	 viewBox="0 0 1600 979.1" style="enable-background:new 0 0 1600 979.1;" xml:space="preserve">
<style type="text/css">
	.st0{fill:none;stroke:#082E51;stroke-width:4;stroke-linecap:round;stroke-linejoin:round;stroke-miterlimit:10;}
	.st1{fill:#082E51;}
	.st2{fill:none;stroke:#082E51;stroke-width:3.8187;stroke-linecap:round;stroke-linejoin:round;stroke-miterlimit:10;}
	.st3{fill:#007BFF;}
</style>
<line class="st0" x1="543.7" y1="592.9" x2="543.7" y2="673.2"/>
<line class="st0" x1="631.1" y1="592.9" x2="631.1" y2="673.2"/>
<line class="st0" x1="1360.8" y1="758.5" x2="1360.8" y2="847.9"/>
<g>
	<g>
		<path class="st1" d="M1526.9,507.7v421h-251.5v-421H1526.9 M1530.9,503.7h-259.5v429h259.5V503.7L1530.9,503.7z"/>
	</g>
</g>
<g>
	<g>
		<path class="st1" d="M1526.9,35.7v421h-251.5v-421L1526.9,35.7 M1530.9,31.7h-259.5v429h259.5V31.7L1530.9,31.7z"/>
	</g>
	<g>
		<line class="st0" x1="1274.5" y1="375.9" x2="1524.5" y2="375.9"/>
	</g>
</g>
<line class="st0" x1="1360.8" y1="287.7" x2="1360.8" y2="457.6"/>
<line class="st0" x1="1059" y1="117.9" x2="1059" y2="203.1"/>
<line class="st0" x1="1358.9" y1="117" x2="1444.1" y2="117"/>
<line class="st0" x1="1059" y1="290.7" x2="1059" y2="375.9"/>
<line class="st0" x1="846" y1="289.6" x2="846" y2="374.8"/>
<line class="st0" x1="931.3" y1="289.2" x2="931.3" y2="374.4"/>
<line class="st0" x1="759" y1="117.9" x2="759" y2="203.1"/>
<line class="st0" x1="675.8" y1="117.9" x2="675.8" y2="203.1"/>
<g>
	<g>
		<path class="st1" d="M628.6,35.7v421H377.1v-421L628.6,35.7 M632.6,31.7H373.1v429h259.5V31.7L632.6,31.7z"/>
	</g>
	<g>
		<line class="st0" x1="376" y1="117.9" x2="629" y2="117.9"/>
		<line class="st0" x1="376" y1="203.9" x2="629" y2="203.9"/>
		<line class="st0" x1="376" y1="289.9" x2="629" y2="289.9"/>
		<line class="st0" x1="376" y1="375.9" x2="629" y2="375.9"/>
	</g>
</g>
<g>
	<line class="st2" x1="82" y1="203.9" x2="318.5" y2="203.9"/>
	<line class="st2" x1="82" y1="289.9" x2="318.5" y2="289.9"/>
</g>
<rect x="458" y="31.7" class="st3" width="90" height="429"/>
<polygon class="st3" points="1441.5,31.7 1441.5,203.1 1360.8,203.1 1360.8,31.7 1271.4,31.7 1271.4,203.1 1271.4,289.3 
	1360.8,289.3 1441.5,289.3 1441.5,460.6 1530.9,460.6 1530.9,31.7 "/>
<polygon class="st3" points="673.8,31.7 673.8,117.9 844,117.9 844,203.1 762.9,203.1 673.8,203.1 673.5,203.1 673.5,460.6 
	673.8,460.6 762.9,460.6 933.3,460.6 933.3,374.4 762.9,374.4 762.9,289.3 933.3,289.3 933.3,203.9 933.3,203.1 933.3,117.9 
	933.3,102.5 933.3,31.7 "/>
<path class="st3" d="M1360.8,503.7h-89.3v86.2v85.2v86.2h89.3h80.8v85.2h-170.1v86.2h170.1h89.3v-86.2v-85.2v-86.2v-85.2v-61.3
	v-24.9L1360.8,503.7L1360.8,503.7z M1441.5,675.1h-80.8v-85.2h80.8V675.1z"/>
<path class="st3" d="M1231.6,503.7h-87.8h-82.7h-78.2h-11.1v342.8v86.2h89.3h82.7h87.5h1.9v-429H1231.6z M1143.8,593.6v79.3h-82.7
	v-79.3H1143.8z M1061.1,846.4v-83.6h82.7v83.6H1061.1z"/>
<path class="st3" d="M633.1,592.9V503H372.2v0.7v89.2v80.3v89.9v82.1v87.5v2.5h260.9V929v-83.8v-82.1v-15v-75H461.5v-80.3
	L633.1,592.9L633.1,592.9z M543.7,763.1v82.1h-82.2v-82.1H543.7z"/>
<line class="st0" x1="759.3" y1="589.9" x2="759.3" y2="929"/>
<line class="st0" x1="330.9" y1="592.9" x2="330.9" y2="673.2"/>
<line class="st0" x1="246" y1="592.9" x2="246" y2="673.2"/>
<line class="st0" x1="158.1" y1="764" x2="158.1" y2="844.3"/>
<line class="st0" x1="74" y1="760.3" x2="74" y2="847"/>
<path class="st3" d="M332.2,460.6H72.7v-429h259.5V460.6z M242.9,117.2h-81v258h81V117.2z"/>
<g>
	<g>
		<path class="st1" d="M1228.1,35.7v421h-252v-421L1228.1,35.7 M1232.1,31.7h-260v429h260V31.7L1232.1,31.7z"/>
	</g>
</g>
<rect x="972.1" y="203.1" class="st3" width="259.5" height="86.2"/>
<polygon class="st3" points="972.1,31.7 972.1,117.9 1143.3,117.9 1143.3,374.4 972.1,374.4 972.1,460.6 1233.2,460.6 1233.2,394.5 
	1233.2,374.4 1233.2,117.9 1233.2,109.8 1233.2,31.7 "/>
<g>
	<g>
		<path class="st1" d="M929.7,507.7v421H678.3v-421H929.7 M933.7,503.7H674.3v429h259.5L933.7,503.7L933.7,503.7z"/>
	</g>
	<g>
		<line class="st0" x1="677" y1="675.9" x2="930.5" y2="675.9"/>
		<line class="st0" x1="677" y1="761.9" x2="930.5" y2="761.9"/>
		<line class="st0" x1="677" y1="847.9" x2="930.5" y2="847.9"/>
	</g>
</g>
<polygon class="st3" points="674.3,503.7 674.3,593.6 844.4,593.6 844.4,932.6 933.7,932.6 933.7,593.6 933.7,521.7 933.7,503.7 "/>
<polygon class="st3" points="332.9,592.9 332.9,502.9 162,502.9 72,502.9 72,592.9 72,673.2 72,763.1 162,763.1 243.5,763.1 
	243.5,845.2 72,845.2 72,935.1 332.9,935.1 332.9,878 332.9,845.2 332.9,763.1 332.9,709.2 332.9,673.2 162,673.2 162,592.9 "/>
</svg>
